<svg width="100" height="32" viewBox="0 0 100 32" fill="none" xmlns="http://www.w3.org/2000/svg">
<g id="Logotype">
<g id="financy">
<path id="Vector" d="M69.854 22.3162L65.0049 9.84232H68.7663L71.4515 17.6144H71.6327L74.1932 9.84232H78L72.7997 23.8571C72.3616 25.0505 71.7536 25.9417 70.9756 26.5309C70.2052 27.1276 69.212 27.4259 67.9959 27.4259H66.3758V24.2423H67.792C68.653 24.2423 69.2686 23.7967 69.6387 22.9054L69.854 22.3162Z" fill="#101828"/>
<path id="Vector_2" d="M53.4419 15.9604C53.4192 14.7745 53.676 13.6944 54.2123 12.7201C54.7486 11.7382 55.5152 10.9602 56.5122 10.3862C57.5168 9.81214 58.6498 9.5289 59.9111 9.53646C61.603 9.53646 63.0117 10.0085 64.1371 10.9527C65.2927 11.9043 65.9498 13.1166 66.1084 14.5895H62.4603C62.279 14.0381 61.9656 13.6 61.5199 13.2752C61.0743 12.9505 60.5456 12.7881 59.9338 12.7881C59.0727 12.7881 58.3816 13.0864 57.8605 13.6831C57.3393 14.2722 57.0787 15.0313 57.0787 15.9604C57.0787 16.8894 57.3431 17.6523 57.8718 18.2489C58.4005 18.8456 59.0954 19.144 59.9564 19.144C60.5456 19.144 61.063 18.9891 61.5086 18.6795C61.9618 18.3698 62.2639 17.9657 62.415 17.4672H66.0858C65.8818 18.9476 65.2247 20.141 64.1144 21.0474C63.0117 21.9462 61.6181 22.3956 59.9338 22.3956C58.9896 22.4031 58.1059 22.2408 57.2826 21.9084C56.4594 21.5685 55.7645 21.1078 55.198 20.5262C54.6391 19.9371 54.201 19.2497 53.8838 18.4642C53.5741 17.6711 53.4268 16.8365 53.4419 15.9604Z" fill="#101828"/>
<path id="Vector_3" d="M44.9832 22.0897H41.3804V9.84235H44.7679V11.1792H44.9605C45.24 10.6958 45.6705 10.3031 46.2521 10.001C46.8337 9.69129 47.4984 9.53645 48.2461 9.53645C49.5679 9.53645 50.6291 9.94809 51.4298 10.7714C52.2304 11.572 52.6307 12.6219 52.6307 13.921V22.0897H49.0392V15.0313C49.0392 14.3818 48.8579 13.8606 48.4954 13.4678C48.1404 13.0751 47.6645 12.8787 47.0678 12.8787C46.456 12.8787 45.9538 13.1015 45.561 13.5471C45.1758 13.9928 44.9832 14.5517 44.9832 15.2239V22.0897Z" fill="#101828"/>
<path id="Vector_4" d="M27.0982 16.0283C27.0982 14.0872 27.6081 12.5275 28.6277 11.3492C29.6776 10.1407 31.0221 9.53645 32.6611 9.53645C33.4541 9.53645 34.149 9.70262 34.7457 10.035C35.35 10.3597 35.8069 10.7601 36.1166 11.2359H36.3092V9.84235H39.9007V22.0897H36.3319V20.6961H36.1393C36.026 20.8774 35.8862 21.0511 35.7201 21.2173C35.5615 21.3835 35.3462 21.5647 35.0743 21.7611C34.8024 21.95 34.4663 22.101 34.0659 22.2143C33.6656 22.3352 33.2276 22.3956 32.7517 22.3956C31.0674 22.3956 29.7003 21.814 28.6504 20.6508C27.6156 19.5028 27.0982 17.9619 27.0982 16.0283ZM30.735 15.9604C30.735 16.9045 30.9956 17.6711 31.5168 18.2603C32.0379 18.8494 32.7215 19.144 33.5674 19.144C34.4058 19.144 35.0818 18.8456 35.5954 18.2489C36.1166 17.6522 36.3772 16.8894 36.3772 15.9604C36.3772 15.0011 36.1128 14.2345 35.5841 13.6604C35.063 13.0788 34.3832 12.7881 33.5448 12.7881C32.7139 12.7881 32.0379 13.0826 31.5168 13.6718C30.9956 14.2609 30.735 15.0238 30.735 15.9604Z" fill="#101828"/>
<path id="Vector_5" d="M18.6395 22.0897H15.0367V9.84235H18.4243V11.1792H18.6169C18.8963 10.6958 19.3268 10.3031 19.9084 10.001C20.49 9.69129 21.1547 9.53645 21.9024 9.53645C23.2242 9.53645 24.2854 9.94809 25.0861 10.7714C25.8867 11.572 26.287 12.6219 26.287 13.921V22.0897H22.6955V15.0313C22.6955 14.3818 22.5142 13.8606 22.1517 13.4678C21.7967 13.0751 21.3209 12.8787 20.7242 12.8787C20.1124 12.8787 19.6101 13.1015 19.2173 13.5471C18.8321 13.9928 18.6395 14.5517 18.6395 15.2239V22.0897Z" fill="#101828"/>
<path id="Vector_6" d="M10.2261 7.93898C9.83337 7.59154 9.63699 7.11947 9.63699 6.52278C9.63699 5.92608 9.83337 5.45402 10.2261 5.10657C10.6264 4.75158 11.1363 4.57408 11.7556 4.57408C12.375 4.57408 12.8848 4.75158 13.2851 5.10657C13.6703 5.44646 13.8629 5.92608 13.8629 6.54544C13.8629 7.14969 13.6703 7.62175 13.2851 7.96164C12.8999 8.30153 12.3901 8.47148 11.7556 8.47148C11.1363 8.47148 10.6264 8.29398 10.2261 7.93898ZM13.5684 22.0897H9.96555V9.84236H13.5684V22.0897Z" fill="#101828"/>
<path id="Vector_7" d="M1.99402 12.6408H0V9.84239H2.09598V9.04931C2.09598 7.70486 2.51896 6.64365 3.3649 5.86569C4.2184 5.08017 5.35514 4.6874 6.77512 4.6874H8.54254V7.65577H7.19432C6.65805 7.65577 6.25018 7.7955 5.97072 8.07497C5.69125 8.34688 5.55152 8.72453 5.55152 9.20793V9.84239H8.63318V12.6408H5.59684V22.0897H1.99402V12.6408Z" fill="#101828"/>
</g>
</g>
</svg>
