<svg width="240" height="240" viewBox="0 0 240 240" fill="none" xmlns="http://www.w3.org/2000/svg">
<g id="Pie Chart">
<path id="Background" d="M240 120C240 186.274 186.274 240 120 240C53.7258 240 0 186.274 0 120C0 53.7258 53.7258 0 120 0C186.274 0 240 53.7258 240 120ZM60 120C60 153.137 86.8629 180 120 180C153.137 180 180 153.137 180 120C180 86.8629 153.137 60 120 60C86.8629 60 60 86.8629 60 120Z" fill="#ECEFF2"/>
<path id="Series 1" d="M120 0C145.342 3.02194e-07 170.033 8.0226 190.534 22.918C211.036 37.8133 226.296 58.8168 234.127 82.918L177.063 101.459C173.148 89.4084 165.518 78.9067 155.267 71.459C145.016 64.0113 132.671 60 120 60V0Z" fill="#F04438"/>
<path id="Series 2" d="M234.127 82.918C240.966 103.965 241.851 126.494 236.684 148.013C231.518 169.533 220.502 189.204 204.853 204.853C189.204 220.502 169.533 231.518 148.013 236.684C126.494 241.851 103.966 240.966 82.918 234.127L101.459 177.063C111.983 180.483 123.247 180.925 134.007 178.342C144.766 175.759 154.602 170.251 162.426 162.426C170.251 154.602 175.759 144.766 178.342 134.007C180.925 123.247 180.483 111.983 177.063 101.459L234.127 82.918Z" fill="#9E77ED"/>
<path id="Series 3" d="M82.918 234.127C58.8167 226.296 37.8133 211.036 22.918 190.534L71.459 155.267C78.9067 165.518 89.4084 173.148 101.459 177.063L82.918 234.127Z" fill="#0BA5EC"/>
<path id="Series 4" d="M22.918 190.534C4.97779 165.842 -2.87914 135.241 0.946238 104.96L60.4731 112.48C58.5604 127.62 62.4889 142.921 71.459 155.267L22.918 190.534Z" fill="#17B26A"/>
<path id="Series 5" d="M0.894463 105.376C3.6696 82.774 12.8183 61.4285 27.272 43.8323C41.7257 26.2361 60.8877 13.1156 82.5198 6.00335L101.26 63.0017C90.4438 66.5578 80.8628 73.1181 73.636 81.9162C66.4091 90.7143 61.8348 101.387 60.4472 112.688L0.894463 105.376Z" fill="#4E5BA6"/>
<path id="Series 6" d="M81.9235 6.20115C94.4648 2.0049 107.613 -0.0894074 120.838 0.00292477L120.419 60.0015C113.807 59.9553 107.232 61.0024 100.962 63.1006L81.9235 6.20115Z" fill="#ECEFF2"/>
</g>
</svg>
